<svg width="2000" height="281" viewBox="0 0 2000 281" fill="none" xmlns="http://www.w3.org/2000/svg">
<path d="M39.6651 239.464C13.0895 212.532 0 179.411 0 140.143C0 100.874 13.0895 67.7537 39.6651 40.821C66.2407 13.8884 100.115 0.402222 140.89 0.402222C190.155 0.402222 234.064 25.8276 257.149 65.8497L225.972 83.937C210.582 54.3072 177.858 35.0299 140.89 35.0299C109.714 35.0299 84.2883 45.0255 64.6541 65.0564C45.0199 85.0873 35.3813 110.116 35.3813 140.143C35.3813 170.169 45.0199 194.801 64.6541 214.832C84.2883 234.863 109.714 244.859 140.89 244.859C177.858 244.859 210.582 225.621 225.972 196.348L257.149 214.039C246.003 234.07 229.82 250.213 209.035 262.153C188.251 274.092 165.522 279.843 140.89 279.843C100.075 279.843 66.2011 266.357 39.6254 239.424L39.6651 239.464Z" fill="#155FFF"/>
<path d="M333.381 241H449.64V274.874H297.563V5.3894H333.381V241Z" fill="#155FFF"/>
<path d="M485.454 5.3894H521.272V274.874H485.454V5.3894Z" fill="#155FFF"/>
<path d="M604.406 239.464C577.831 212.532 564.741 179.411 564.741 140.143C564.741 100.874 577.831 67.7537 604.406 40.821C630.982 13.8884 664.856 0.402222 705.671 0.402222C754.935 0.402222 798.845 25.8276 821.93 65.8497L790.753 83.937C775.363 54.3072 742.639 35.0299 705.671 35.0299C674.495 35.0299 649.069 45.0255 629.435 65.0564C609.801 85.0873 600.162 110.116 600.162 140.143C600.162 170.169 609.801 194.801 629.435 214.832C649.069 234.863 674.495 244.859 705.671 244.859C742.639 244.859 775.363 225.621 790.753 196.348L821.93 214.039C810.784 234.07 794.6 250.213 773.816 262.153C753.031 274.092 730.303 279.843 705.671 279.843C664.856 279.843 630.982 266.357 604.406 239.424V239.464Z" fill="#155FFF"/>
<path d="M1058.32 274.874H1014.45L898.196 145.526V274.874H862.378V5.3894H898.196V127.042L1010.57 5.3894H1054.44L935.481 136.284L1058.28 274.874H1058.32Z" fill="#155FFF"/>
<path d="M1186.87 5.3894C1212.66 5.3894 1234.63 14.2347 1252.32 31.5684C1270.01 48.9021 1278.9 70.4403 1278.9 95.8656C1278.9 121.291 1270.05 142.829 1252.32 160.163C1234.63 177.497 1212.66 186.342 1186.87 186.342H1139.51V274.874H1086.4V5.3894H1186.87ZM1186.87 136.681C1209.6 136.681 1226.14 118.99 1226.14 95.8656C1226.14 72.7408 1209.6 55.0502 1186.87 55.0502H1139.51V136.681H1186.87Z" fill="#155FFF"/>
<path d="M1439.07 280.274C1400.19 280.274 1367.07 266.788 1339.74 239.855C1312.81 212.526 1299.33 179.406 1299.33 140.137C1299.33 100.869 1312.81 67.7481 1339.74 40.8155C1366.68 13.8828 1400.19 0 1439.07 0C1477.94 0 1511.06 13.4862 1538.39 40.8155C1565.72 67.7481 1579.2 100.869 1579.2 140.137C1579.2 179.406 1565.72 212.526 1538.39 239.855C1511.06 266.788 1477.94 280.274 1439.07 280.274ZM1439.07 228.313C1463.7 228.313 1484.48 220.221 1501.06 203.681C1517.6 187.14 1526.09 165.959 1526.09 140.177C1526.09 114.394 1517.6 93.2131 1501.06 76.6331C1484.52 60.0927 1463.7 51.6044 1439.07 51.6044C1414.43 51.6044 1393.65 60.0927 1377.07 76.6331C1360.53 93.1735 1352.04 114.355 1352.04 140.177C1352.04 165.999 1360.53 187.14 1377.07 203.681C1393.61 220.221 1414.43 228.313 1439.07 228.313Z" fill="#155FFF"/>
<path d="M1593.03 213.676L1638.45 187.101C1648.84 214.43 1669.63 228.313 1700.45 228.313C1731.27 228.313 1743.56 216.373 1743.56 199.833C1743.56 190.194 1739.32 182.896 1730.87 177.898C1722.42 172.504 1707.39 166.752 1685.45 160.565C1661.18 153.266 1646.58 147.475 1629.64 135.536C1613.1 123.2 1604.22 104.756 1604.22 80.084C1604.22 55.4122 1612.67 36.2143 1630 21.9348C1647.33 7.29839 1668.51 0 1692.75 0C1736.26 0 1770.53 22.3315 1788.98 60.4497L1744.31 86.2321C1733.53 63.1469 1716.19 51.5647 1692.71 51.5647C1670.78 51.5647 1657.29 62.7106 1657.29 78.4974C1657.29 86.9857 1660.74 93.8874 1667.68 99.2819C1674.98 104.28 1688.47 110.071 1708.5 116.219L1726.98 122.367C1731.23 123.517 1736.98 125.818 1744.31 128.912C1751.61 131.609 1757.4 134.306 1761.25 137.003C1769.34 142.001 1781.64 151.64 1786.68 160.882C1792.47 170.124 1796.67 183.61 1796.67 199C1796.67 224.029 1787.43 243.663 1769.34 258.3C1751.26 272.936 1727.77 280.234 1698.9 280.234C1645.39 280.234 1608.03 254.809 1593.03 213.637V213.676Z" fill="#155FFF"/>
<path d="M1999.96 5.3894V56.2005H1927.21V274.874H1874.1V56.2005H1801.71V5.3894H2000H1999.96Z" fill="#155FFF"/>
</svg>
