<svg xmlns="http://www.w3.org/2000/svg" fill="none" viewBox="0 0 137 17" height="17" width="137">
<g id="Group">
<path fill="#272727" d="M0 16.508V0.48999H7.67888C10.574 0.48999 12.1918 1.29889 13.5669 2.62322C14.989 4.09428 15.749 6.15603 15.749 8.48678C15.749 10.8175 14.9157 13.073 13.3938 14.546C12.0206 15.7725 10.5721 16.508 7.67888 16.508H0ZM7.55472 14.055C9.59013 14.055 10.2768 13.5885 11.2343 12.804C12.2651 11.7732 12.8784 10.2043 12.8784 8.48678C12.8784 6.76929 12.3385 5.32268 11.3321 4.29181C10.4254 3.45845 9.56567 2.94302 7.55472 2.94302H2.74649V14.055H7.55472Z" id="Vector"></path>
<path fill="#272727" d="M27.1624 0C32.2152 0 36.239 3.77736 36.239 8.46332C36.239 13.1493 32.2171 17 27.1624 17C22.1077 17 18.1592 13.2226 18.1592 8.46332C18.1592 3.70399 22.1096 0 27.1624 0ZM27.1624 14.547C30.6218 14.547 33.3439 11.8005 33.3439 8.46332C33.3439 5.12615 30.6218 2.45303 27.1624 2.45303C23.7029 2.45303 21.0543 5.1506 21.0543 8.46332C21.0543 11.776 23.7274 14.547 27.1624 14.547Z" id="Vector_2"></path>
<path fill="#272727" d="M47.6048 0C52.6576 0 56.6813 3.77736 56.6813 8.46332C56.6813 13.1493 52.6576 17 47.6048 17C42.552 17 38.6016 13.2226 38.6016 8.46332C38.6016 3.70399 42.5501 0 47.6048 0ZM47.6048 14.547C51.0642 14.547 53.7863 11.8005 53.7863 8.46332C53.7863 5.12615 51.0623 2.45303 47.6048 2.45303C44.1472 2.45303 41.4967 5.1506 41.4967 8.46332C41.4967 11.776 44.1698 14.547 47.6048 14.547Z" id="Vector_3"></path>
<path fill="#272727" d="M74.6353 0.48999V16.508H72.2067L62.9589 5.39604H62.9345V16.508H60.188V0.48999H62.6166L71.8643 11.602H71.8888V0.48999H74.6353Z" id="Vector_4"></path>
<path fill="#272727" d="M85.0438 0.48999H87.5457L94.9782 16.508H91.9608L90.0232 12.1908H82.3951L80.482 16.508H77.6113L85.0438 0.48999ZM83.3752 9.98418H89.0412L86.2947 3.77825H86.148L83.3752 9.98418Z" id="Vector_5"></path>
<path fill="#272727" d="M97.9648 16.508V0.48999H100.711V16.508H97.9648Z" id="Vector_6"></path>
<path fill="#272727" d="M108.352 0.48999V14.055H118.188V16.508H105.604V0.48999H108.35H108.352Z" id="Vector_7"></path>
<path fill="#272727" d="M133.399 4.24389C132.516 3.43499 130.528 2.37966 127.586 2.37966C125.673 2.37966 123.98 2.99292 123.98 4.68596C123.98 6.379 126.359 6.50127 128.788 6.67246C131.659 6.8681 136.172 7.16344 136.172 11.6274C136.172 15.5026 132.934 17 129.106 17C124.886 17 122.14 15.2581 120.349 13.6403L122.018 11.7271C123.318 12.9047 125.575 14.6222 129.157 14.6222C131.536 14.6222 133.425 13.8133 133.425 11.998C133.425 9.98705 131.585 9.56944 128.788 9.34934C125.255 9.10479 121.233 8.80945 121.233 4.93427C121.233 1.05909 124.74 0 127.684 0C131.07 0 133.792 1.32433 135.067 2.33075L133.399 4.24389Z" id="Vector_8"></path>
</g>
</svg>
