<svg viewBox="0 0 167.49 65.89" version="1.1" xmlns="http://www.w3.org/2000/svg" id="Renue_by_Science">
  
  <defs>
    <style>
      .st0 {
        fill-rule: evenodd;
      }

      .st0, .st1 {
        fill: #003055;
      }
    </style>
  </defs>
  <g id="Shape_3_copy_3">
    <path d="M19.15,0v10.76l19.29,11.03v22.44l-19.29,10.57v11.09l28.46-16.44V16.51L19.15,0ZM6.2,40.32v-15l12.95-7.11v-7.44L0,21.79v21.99l19.15,11.03v-7.18l-12.95-7.31ZM27.73,27.86v10.11l-8.59,4.7v4.96l12.76-7.31v-14.81l-12.76-7.31v4.76l8.59,4.89Z" class="st0"></path>
  </g>
  <g>
    <path d="M63.92,31.94h-3.15v5.69h-5.97v-21.11h9.38c5.39,0,8.49,2.71,8.49,7.5,0,3.13-1.2,5.42-3.38,6.72l4.07,6.9h-6.77l-2.67-5.69ZM64.18,27.12c1.78,0,2.81-1.02,2.81-2.92s-1.03-2.86-2.81-2.86h-3.41v5.78h3.41Z" class="st1"></path>
    <path d="M84.43,21.34v3.31h9.49v4.82h-9.49v3.34h10.76v4.82h-16.72v-21.11h16.43v4.82h-10.47Z" class="st1"></path>
    <path d="M114.92,37.63l-8.52-11.74v11.74h-5.48v-21.11h5.11l8.52,11.8v-11.8h5.45v21.11h-5.08Z" class="st1"></path>
    <path d="M144.83,28.71c0,5.6-3.64,9.18-9.38,9.18s-9.52-3.58-9.52-9.18v-12.2h5.97v12.2c0,2.44,1.58,3.95,3.59,3.95s3.38-1.48,3.38-3.95v-12.2h5.97v12.2Z" class="st1"></path>
    <path d="M156.73,21.34v3.31h9.49v4.82h-9.49v3.34h10.76v4.82h-16.72v-21.11h16.43v4.82h-10.47Z" class="st1"></path>
  </g>
  <g>
    <path d="M58.54,41.42c1.81,0,2.94.76,2.94,2.01,0,.91-.59,1.58-1.54,1.79,1.18.18,1.88.95,1.88,2.03,0,1.38-1.21,2.2-3.19,2.2h-3.89v-8.03h3.8ZM56.21,44.75h2.25c.94,0,1.5-.4,1.5-1.08s-.56-1.04-1.5-1.04h-2.25v2.12ZM56.21,48.25h2.25c1.15,0,1.84-.41,1.84-1.17,0-.71-.69-1.14-1.84-1.14h-2.25v2.31Z" class="st1"></path>
    <path d="M71.52,49.45h-1.46v-2.63l-3.26-5.4h1.49l2.5,3.91,2.45-3.91h1.5l-3.21,5.36v2.67Z" class="st1"></path>
    <path d="M93.79,42.19l-.61,1.19c-.95-.53-1.9-.75-2.56-.75-.86,0-1.43.3-1.43.84,0,1.76,4.73.81,4.71,3.71,0,1.43-1.38,2.32-3.3,2.32-1.38,0-2.68-.52-3.58-1.27l.64-1.17c.9.76,2.03,1.17,2.96,1.17,1.03,0,1.64-.36,1.64-.98,0-1.79-4.73-.79-4.73-3.65,0-1.38,1.29-2.24,3.19-2.24,1.14,0,2.25.33,3.06.83Z" class="st1"></path>
    <path d="M107.19,42.63l-.86.99c-.64-.63-1.55-1.02-2.44-1.02-1.75,0-3.13,1.24-3.13,2.82s1.38,2.83,3.13,2.83c.88,0,1.78-.37,2.44-.95l.88.89c-.89.8-2.15,1.32-3.39,1.32-2.56,0-4.55-1.78-4.55-4.08s2.01-4.04,4.6-4.04c1.24,0,2.48.47,3.33,1.24Z" class="st1"></path>
    <path d="M113.07,49.45v-8.03h1.48v8.03h-1.48Z" class="st1"></path>
    <path d="M122.69,42.64v2.17h4.28v1.22h-4.28v2.21h4.93v1.22h-6.4v-8.03h6.25v1.22h-4.78Z" class="st1"></path>
    <path d="M139.92,49.45l-4.66-5.76v5.76h-1.48v-8.03h1.45l4.69,5.77v-5.77h1.45v8.03h-1.45Z" class="st1"></path>
    <path d="M155.25,42.63l-.86.99c-.64-.63-1.55-1.02-2.44-1.02-1.75,0-3.13,1.24-3.13,2.82s1.38,2.83,3.13,2.83c.88,0,1.78-.37,2.44-.95l.88.89c-.89.8-2.15,1.32-3.39,1.32-2.56,0-4.55-1.78-4.55-4.08s2.01-4.04,4.6-4.04c1.24,0,2.48.47,3.33,1.24Z" class="st1"></path>
    <path d="M162.6,42.64v2.17h4.28v1.22h-4.28v2.21h4.93v1.22h-6.4v-8.03h6.25v1.22h-4.78Z" class="st1"></path>
  </g>
</svg>