<svg width="600" height="600" viewBox="0 0 600 600" fill="none" xmlns="http://www.w3.org/2000/svg">
<g filter="url(#filter0_n_517_1017)">
<g clip-path="url(#clip0_517_1017)">
<rect width="600" height="600" rx="100" fill="#155FFF"/>
<path d="M600 499.993C600 555.222 555.228 599.993 500 599.993H100C44.7715 599.993 0 555.222 0 499.993V449H600V499.993ZM392.2 495C384.037 495 376.999 497.915 371.343 503.571C365.687 509.227 362.854 516.182 362.854 524.429C362.854 532.675 365.687 539.63 371.343 545.369C377.082 551.025 384.037 553.857 392.2 553.857C400.363 553.857 407.319 551.025 413.058 545.369C418.797 539.63 421.629 532.675 421.629 524.429C421.629 516.182 418.797 509.227 413.058 503.571C407.319 497.832 400.363 495 392.2 495ZM445.479 495C440.39 495 435.942 496.533 432.302 499.606C428.662 502.605 426.888 506.637 426.888 511.817C426.888 516.998 428.754 520.872 432.228 523.463C435.784 525.97 438.85 527.186 443.947 528.719C448.553 530.018 451.71 531.226 453.484 532.358C455.259 533.408 456.15 534.941 456.15 536.965C456.15 540.438 453.568 542.945 447.096 542.945C440.624 542.945 436.259 540.03 434.076 534.291L424.541 539.87C424.54 539.868 424.54 539.865 424.539 539.863V539.872L424.541 539.87C427.691 548.512 435.537 553.849 446.771 553.849C452.834 553.849 457.766 552.317 461.564 549.243C465.363 546.17 467.304 542.046 467.304 536.79C467.304 533.558 466.42 530.726 465.204 528.785C464.146 526.844 461.564 524.82 459.865 523.771C459.057 523.204 457.841 522.638 456.309 522.071C454.768 521.422 453.559 520.939 452.668 520.697L448.786 519.406C444.58 518.115 441.747 516.899 440.215 515.85C438.757 514.717 438.033 513.267 438.033 511.484C438.033 508.169 440.865 505.828 445.472 505.828C450.403 505.828 454.043 508.261 456.309 513.108L465.688 507.694C461.814 499.69 454.617 495 445.479 495ZM119.587 495.085C111.024 495.085 103.911 497.918 98.3301 503.573C92.7492 509.229 90 516.184 90 524.431C90 532.677 92.7492 539.632 98.3301 545.288L98.3213 545.28C103.902 550.936 111.016 553.768 119.587 553.768C124.76 553.768 129.533 552.56 133.897 550.053C138.262 547.546 141.66 544.156 144.001 539.949L137.454 536.234C134.222 542.381 127.35 546.421 119.587 546.421C113.04 546.421 107.7 544.322 103.577 540.115C99.4541 535.909 97.4297 530.736 97.4297 524.431C97.4297 518.125 99.4542 512.869 103.577 508.663C107.7 504.457 113.04 502.357 119.587 502.357C127.35 502.357 134.222 506.406 137.454 512.628L144.001 508.829C139.153 500.425 129.932 495.085 119.587 495.085ZM238.189 495.085C229.618 495.085 222.505 497.918 216.924 503.573C211.343 509.229 208.594 516.184 208.594 524.431C208.594 532.677 211.343 539.632 216.924 545.288V545.28C222.505 550.936 229.618 553.768 238.189 553.768C243.362 553.768 248.134 552.56 252.499 550.053C256.864 547.546 260.263 544.156 262.604 539.949L256.057 536.234C252.825 542.381 245.952 546.421 238.189 546.421C231.642 546.421 226.303 544.322 222.18 540.115C218.057 535.909 216.032 530.736 216.032 524.431C216.032 518.125 218.057 512.87 222.18 508.663C226.303 504.457 231.642 502.357 238.189 502.357C245.953 502.358 252.825 506.406 256.057 512.628L262.604 508.829C257.756 500.425 248.535 495.085 238.189 495.085ZM152.488 552.721H184.424V545.607H160.01V496.129H152.488V552.721ZM191.945 552.721H199.467V496.129H191.945V552.721ZM271.099 552.721H278.62V525.558L303.034 552.721H312.238L286.45 523.617L311.431 496.129H302.218L278.62 521.676V496.129H271.099V552.721ZM318.145 552.721H329.298V534.129H339.244C344.658 534.129 349.273 532.271 352.988 528.631C356.711 524.991 358.568 520.468 358.568 515.129C358.568 509.79 356.703 505.266 352.988 501.626C349.273 497.986 344.658 496.129 339.244 496.129H318.145V552.721ZM468.36 496.129V506.799H483.562V552.721H494.715V506.799H509.991V496.129H468.36ZM392.2 505.837C397.373 505.837 401.746 507.619 405.22 511.093C408.693 514.575 410.476 519.023 410.476 524.438C410.475 529.851 408.693 534.299 405.22 537.772C401.738 541.246 397.373 542.945 392.2 542.945C387.027 542.945 382.654 541.246 379.181 537.772C375.707 534.299 373.925 529.86 373.925 524.438C373.925 519.015 375.707 514.566 379.181 511.093C382.662 507.619 387.027 505.837 392.2 505.837ZM339.244 506.558C344.017 506.558 347.49 510.273 347.49 515.129C347.49 519.985 344.017 523.7 339.244 523.7H329.298V506.558H339.244Z" fill="white"/>
<path d="M386.053 201.798C398.843 201.868 410.413 196.728 418.763 188.368C427.113 180.018 432.253 168.448 432.183 155.658C432.043 130.078 411.113 109.148 385.533 109.008C359.953 108.868 339.263 129.558 339.393 155.148C339.533 180.728 360.463 201.658 386.043 201.798H386.053ZM362.583 151.408L381.913 151.518L381.803 132.188C381.793 130.048 383.513 128.328 385.643 128.348C387.783 128.348 389.523 130.098 389.533 132.238L389.643 151.568L408.973 151.678C411.113 151.688 412.853 153.428 412.863 155.568C412.863 156.638 412.443 157.598 411.743 158.298C411.043 158.998 410.083 159.418 409.013 159.418L389.683 159.308L389.793 178.628C389.793 179.698 389.373 180.658 388.673 181.358C387.973 182.058 387.013 182.478 385.943 182.478C383.803 182.468 382.063 180.728 382.053 178.588L381.943 159.268L362.613 159.158C360.473 159.148 358.733 157.408 358.723 155.268C358.713 153.138 360.433 151.408 362.563 151.428L362.583 151.408Z" fill="white"/>
<path d="M279.733 361.218C279.293 361.448 278.833 361.638 278.373 361.818V221.898L330.403 195.368C342.743 212.478 362.843 223.638 385.513 223.638C422.963 223.638 453.423 193.178 453.423 155.728C453.423 118.278 422.963 87.8179 385.513 87.8179C377.233 87.8179 369.143 89.2879 361.463 92.1979C359.133 93.0779 357.963 95.6779 358.843 98.0079C359.723 100.338 362.323 101.508 364.653 100.628C371.303 98.1079 378.323 96.8279 385.513 96.8279C417.993 96.8279 444.423 123.248 444.423 155.728C444.423 188.208 417.993 214.628 385.513 214.628C353.033 214.628 326.613 188.198 326.613 155.728C326.613 138.628 334.033 122.388 346.973 111.188C348.853 109.558 349.053 106.718 347.433 104.838C345.803 102.958 342.963 102.758 341.083 104.378C337.233 107.718 333.803 111.438 330.843 115.468L284.253 90.4379C277.813 86.9779 270.123 86.9379 263.653 90.3479C263.613 90.3679 263.573 90.3879 263.533 90.4079C263.513 90.4079 263.503 90.4279 263.483 90.4379L158.043 147.088C151.043 150.698 145.993 158.968 146.003 167.518V294.828C146.003 303.648 150.773 311.558 158.463 315.478L263.923 369.238C269.493 372.088 277.303 372.618 283.833 369.238L304.363 358.768L308.573 346.518L279.743 361.218H279.733ZM269.373 361.808C268.903 361.638 268.453 361.438 268.013 361.208L162.553 307.438C157.973 305.108 155.013 300.148 155.013 294.818V167.508C155.013 166.258 155.173 165.018 155.483 163.828L269.373 221.888V361.808ZM160.423 156.248C161.013 155.788 161.643 155.378 162.293 155.028L267.693 98.4079C267.693 98.4079 267.753 98.3779 267.783 98.3579C267.793 98.3579 267.803 98.3479 267.813 98.3479C271.633 96.3179 276.183 96.3279 279.983 98.3779L325.973 123.078C320.543 132.978 317.603 144.178 317.603 155.728C317.603 167.278 320.503 178.168 325.613 187.698L273.863 214.078L160.423 156.248Z" fill="white"/>
<path d="M392.733 241.178V268.948L401.743 261.388V241.188C401.743 238.698 399.723 236.688 397.243 236.688C394.763 236.688 392.743 238.698 392.743 241.188L392.733 241.178Z" fill="white"/>
<path d="M317.873 340.968L306.773 373.278L340.523 367.918L420.683 300.588L398.043 273.628L317.873 340.968Z" fill="white"/>
<path d="M428.343 263.298C426.463 261.058 423.593 259.628 420.463 259.358C417.343 259.088 414.263 260.008 412.033 261.878L403.403 269.128L426.053 296.088L434.683 288.838C437.053 286.848 438.503 284.058 438.773 280.978C439.043 277.898 438.093 274.898 436.103 272.528L428.343 263.298Z" fill="white"/>
</g>
</g>
<defs>
<filter id="filter0_n_517_1017" x="0" y="0" width="600" height="600" filterUnits="userSpaceOnUse" color-interpolation-filters="sRGB">
<feFlood flood-opacity="0" result="BackgroundImageFix"/>
<feBlend mode="normal" in="SourceGraphic" in2="BackgroundImageFix" result="shape"/>
<feTurbulence type="fractalNoise" baseFrequency="1 1" stitchTiles="stitch" numOctaves="3" result="noise" seed="657" />
<feColorMatrix in="noise" type="luminanceToAlpha" result="alphaNoise" />
<feComponentTransfer in="alphaNoise" result="coloredNoise1">
<feFuncA type="discrete" tableValues="0 0 0 0 0 0 0 0 0 0 0 0 0 0 0 0 0 0 0 1 1 1 1 1 1 1 1 1 1 1 0 0 0 0 0 0 0 0 0 0 0 0 0 0 0 0 0 0 0 0 0 0 0 0 0 0 0 0 0 0 0 0 0 0 0 0 0 0 0 0 0 0 0 0 0 0 0 0 0 0 0 0 0 0 0 0 0 0 0 0 0 0 0 0 0 0 0 0 0 0 "/>
</feComponentTransfer>
<feComposite operator="in" in2="shape" in="coloredNoise1" result="noise1Clipped" />
<feFlood flood-color="rgba(255, 255, 255, 0.4)" result="color1Flood" />
<feComposite operator="in" in2="noise1Clipped" in="color1Flood" result="color1" />
<feMerge result="effect1_noise_517_1017">
<feMergeNode in="shape" />
<feMergeNode in="color1" />
</feMerge>
</filter>
<linearGradient id="paint0_linear_517_1017" x1="-75.9868" y1="695.043" x2="683.281" y2="213.799" gradientUnits="userSpaceOnUse">
<stop stop-color="#001644"/>
<stop offset="0.256476" stop-color="#001B61"/>
<stop offset="0.652345" stop-color="#155FFF"/>
<stop offset="0.934314" stop-color="#0EE2E2"/>
</linearGradient>
<clipPath id="clip0_517_1017">
<rect width="600" height="600" rx="100" fill="white"/>
</clipPath>
</defs>
</svg>
